# xmcd CD database file
#
# Track frame offsets:
#	150
#	14631
#	31435
#	45916
#
# Disc length: 834 seconds
#
# Revision: 1
# Processed by: cddbd v1.5.2PL0 Copyright (c) Steve Scherf et al.
# Submitted via: CDex 1.70beta3
#
DISCID=28034004
DTITLE=さとちん電波隊 - 昼下がりのジョージ
DYEAR=2016
DGENRE=Blues
TTITLE0=昼下がりのジョージ
TTITLE1=ちんこい物語
TTITLE2=昼下がりのジョージ (オリジナル・カラオケ)
TTITLE3=ちんこい物語 (オリジナル・カラオケ)
EXTD=YEAR: 2016
EXTT0=
EXTT1=
EXTT2=
EXTT3=
PLAYORDER=
